<svg width="37" height="45" viewBox="0 0 37 45" fill="none" xmlns="http://www.w3.org/2000/svg">
<path d="M18.4846 7.41238C9.97459 7.41238 3.08334 15.0666 3.08334 24.4977C3.08334 33.9287 9.97459 41.5829 18.4846 41.5829C27.01 41.5829 33.9167 33.9287 33.9167 24.4977C33.9167 15.0666 27.01 7.41238 18.4846 7.41238ZM18.5 38.1659C11.6858 38.1659 6.16668 32.0494 6.16668 24.4977C6.16668 16.946 11.6858 10.8294 18.5 10.8294C25.3142 10.8294 30.8333 16.946 30.8333 24.4977C30.8333 32.0494 25.3142 38.1659 18.5 38.1659Z" fill="#247BA0"/>
<path d="M19.2708 15.955H16.9583V26.2062L25.0521 31.5881L26.2083 29.4866L19.2708 24.9248V15.955Z" fill="#247BA0"/>
</svg>
