<svg width="86" height="75" viewBox="0 0 86 75" fill="none" xmlns="http://www.w3.org/2000/svg">
<path d="M52.6392 54.0313C52.9714 53.7421 53.2349 53.3987 53.4147 53.0207C53.5945 52.6427 53.6871 52.2374 53.6871 51.8281C53.6871 51.4188 53.5945 51.0136 53.4147 50.6355C53.2349 50.2575 52.9714 49.9141 52.6392 49.625L38.7358 37.5L52.6392 25.375C53.3092 24.7907 53.6856 23.9982 53.6856 23.1719C53.6856 22.3455 53.3092 21.5531 52.6392 20.9687C51.9692 20.3844 51.0605 20.0562 50.1129 20.0562C49.1654 20.0562 48.2567 20.3844 47.5867 20.9687L31.1392 35.3125C30.807 35.6016 30.5434 35.945 30.3636 36.323C30.1838 36.7011 30.0913 37.1063 30.0913 37.5156C30.0913 37.9249 30.1838 38.3302 30.3636 38.7082C30.5434 39.0862 30.807 39.4296 31.1392 39.7187L47.5867 54.0625C48.9483 55.25 51.2417 55.25 52.6392 54.0313Z" fill="white"/>
<path d="M52.6392 54.0313C52.9714 53.7421 53.2349 53.3987 53.4147 53.0207C53.5945 52.6427 53.6871 52.2374 53.6871 51.8281C53.6871 51.4188 53.5945 51.0136 53.4147 50.6355C53.2349 50.2575 52.9714 49.9141 52.6392 49.625L38.7358 37.5L52.6392 25.375C53.3092 24.7907 53.6856 23.9982 53.6856 23.1719C53.6856 22.3455 53.3092 21.5531 52.6392 20.9687C51.9692 20.3844 51.0605 20.0562 50.1129 20.0562C49.1654 20.0562 48.2567 20.3844 47.5867 20.9687L31.1392 35.3125C30.807 35.6016 30.5434 35.945 30.3636 36.323C30.1838 36.7011 30.0913 37.1063 30.0913 37.5156C30.0913 37.9249 30.1838 38.3302 30.3636 38.7082C30.5434 39.0862 30.807 39.4296 31.1392 39.7187L47.5867 54.0625C48.9483 55.25 51.2417 55.25 52.6392 54.0313Z" fill="white"/>
</svg>
